<?xml version="1.0" encoding="UTF-8" standalone="no"?>
<!-- Created with Inkscape (http://www.inkscape.org/) -->

<svg
   xmlns:dc="http://purl.org/dc/elements/1.1/"
   xmlns:cc="http://creativecommons.org/ns#"
   xmlns:rdf="http://www.w3.org/1999/02/22-rdf-syntax-ns#"
   xmlns:svg="http://www.w3.org/2000/svg"
   xmlns="http://www.w3.org/2000/svg"
   xmlns:sodipodi="http://sodipodi.sourceforge.net/DTD/sodipodi-0.dtd"
   xmlns:inkscape="http://www.inkscape.org/namespaces/inkscape"
   width="310pt"
   height="200pt"
   viewBox="0 0 109.36111 70.555555"
   version="1.1"
   id="svg8"
   inkscape:version="0.92.4 (5da689c313, 2019-01-14)"
   sodipodi:docname="lc-logo-dc-removal.svg">
  <defs
     id="defs2">
    <marker
       inkscape:stockid="Arrow1Lend"
       orient="auto"
       refY="0.0"
       refX="0.0"
       id="Arrow1Lend"
       style="overflow:visible;"
       inkscape:isstock="true">
      <path
         id="path884"
         d="M 0.0,0.0 L 5.0,-5.0 L -12.5,0.0 L 5.0,5.0 L 0.0,0.0 z "
         style="fill-rule:evenodd;stroke:#000000;stroke-width:1pt;stroke-opacity:1;fill:#000000;fill-opacity:1"
         transform="scale(0.8) rotate(180) translate(12.5,0)" />
    </marker>
    <marker
       inkscape:isstock="true"
       style="overflow:visible;"
       id="marker1187"
       refX="0.0"
       refY="0.0"
       orient="auto"
       inkscape:stockid="Arrow1Lend">
      <path
         transform="scale(0.8) rotate(180) translate(12.5,0)"
         style="fill-rule:evenodd;stroke:#000000;stroke-width:1pt;stroke-opacity:1;fill:#000000;fill-opacity:1"
         d="M 0.0,0.0 L 5.0,-5.0 L -12.5,0.0 L 5.0,5.0 L 0.0,0.0 z "
         id="path1185" />
    </marker>
    <marker
       inkscape:isstock="true"
       style="overflow:visible;"
       id="marker1165"
       refX="0.0"
       refY="0.0"
       orient="auto"
       inkscape:stockid="Arrow1Lend">
      <path
         transform="scale(0.8) rotate(180) translate(12.5,0)"
         style="fill-rule:evenodd;stroke:#000000;stroke-width:1pt;stroke-opacity:1;fill:#000000;fill-opacity:1"
         d="M 0.0,0.0 L 5.0,-5.0 L -12.5,0.0 L 5.0,5.0 L 0.0,0.0 z "
         id="path1163" />
    </marker>
  </defs>
  <sodipodi:namedview
     id="base"
     pagecolor="#ffffff"
     bordercolor="#666666"
     borderopacity="1.0"
     inkscape:pageopacity="0.0"
     inkscape:pageshadow="2"
     inkscape:zoom="1.2345873"
     inkscape:cx="277.79075"
     inkscape:cy="113.35794"
     inkscape:document-units="mm"
     inkscape:current-layer="layer1"
     showgrid="false"
     units="pt"
     inkscape:window-width="1366"
     inkscape:window-height="705"
     inkscape:window-x="0"
     inkscape:window-y="30"
     inkscape:window-maximized="1" />
  <metadata
     id="metadata5">
    <rdf:RDF>
      <cc:Work
         rdf:about="">
        <dc:format>image/svg+xml</dc:format>
        <dc:type
           rdf:resource="http://purl.org/dc/dcmitype/StillImage" />
        <dc:title></dc:title>
      </cc:Work>
    </rdf:RDF>
  </metadata>
  <g
     inkscape:label="Layer 1"
     inkscape:groupmode="layer"
     id="layer1"
     transform="translate(0,-226.44445)">
    <path
       style="fill:none;stroke:#808080;stroke-width:0.26458332px;stroke-linecap:butt;stroke-linejoin:miter;stroke-opacity:1"
       d="m 14.688357,251.23218 h 79.78918"
       id="path10"
       inkscape:connector-curvature="0" />
    <text
       xml:space="preserve"
       style="font-style:normal;font-weight:normal;font-size:10.58333302px;line-height:1.25;font-family:sans-serif;letter-spacing:0px;word-spacing:0px;fill:#808080;fill-opacity:1;stroke:none;stroke-width:0.26458332"
       x="94.888824"
       y="253.69981"
       id="text14"><tspan
         sodipodi:role="line"
         id="tspan12"
         x="94.888824"
         y="253.69981"
         style="font-size:6.3499999px;fill:#808080;stroke-width:0.26458332">0</tspan></text>
    <path
       style="fill:none;stroke:#ff0000;stroke-width:1.05833333;stroke-linecap:butt;stroke-linejoin:miter;stroke-opacity:1;stroke-miterlimit:4;stroke-dasharray:none"
       d="m 14.688357,251.23218 c 0,0 10.693395,0 15.423165,-1.23385 4.729771,-1.23386 11.104681,-2.26207 14.394955,-3.90721 3.290276,-1.64513 6.37491,-3.70156 7.197479,-5.55233 0.822568,-1.85078 1.233852,-3.90721 2.262063,-5.75799 1.028213,-1.85078 2.056423,-2.87899 4.318487,-3.08463 2.262065,-0.20564 3.495918,0.61693 4.112844,3.29028 0.616927,2.67334 1.028211,5.96362 1.439495,7.40311 0.411287,1.4395 1.439497,2.879 4.729771,3.29028 3.290276,0.41128 4.935413,1.4395 11.310323,1.64514 6.374908,0.20564 8.431332,1.85078 11.927248,2.05642"
       id="path16"
       inkscape:connector-curvature="0" />
    <path
       style="fill:none;stroke:#000000;stroke-width:0.50868279;stroke-linecap:butt;stroke-linejoin:miter;stroke-miterlimit:3;stroke-dasharray:none;stroke-opacity:1;marker-end:url(#marker1187)"
       d="M 56.962894,252.79343 V 269.2383"
       id="path18"
       inkscape:connector-curvature="0" />
    <text
       xml:space="preserve"
       style="font-style:normal;font-weight:normal;font-size:10.58333302px;line-height:1.25;font-family:sans-serif;letter-spacing:0px;word-spacing:0px;fill:#000000;fill-opacity:1;stroke:none;stroke-width:0.26458332"
       x="64.16037"
       y="265.12546"
       id="text24"><tspan
         sodipodi:role="line"
         id="tspan22"
         x="64.16037"
         y="265.12546"
         style="stroke-width:0.26458332">D</tspan></text>
    <path
       inkscape:connector-curvature="0"
       id="path62"
       d="m 14.688357,286.19136 h 79.78918"
       style="fill:none;stroke:#808080;stroke-width:0.26458332px;stroke-linecap:butt;stroke-linejoin:miter;stroke-opacity:1" />
    <text
       id="text66"
       y="288.659"
       x="94.888824"
       style="font-style:normal;font-weight:normal;font-size:10.58333302px;line-height:1.25;font-family:sans-serif;letter-spacing:0px;word-spacing:0px;fill:#808080;fill-opacity:1;stroke:none;stroke-width:0.26458332"
       xml:space="preserve"><tspan
         style="font-size:6.3499999px;fill:#808080;stroke-width:0.26458332"
         y="288.659"
         x="94.888824"
         id="tspan64"
         sodipodi:role="line">0</tspan></text>
    <path
       inkscape:connector-curvature="0"
       id="path68"
       d="m 14.688357,292.01223 c 0,0 10.693395,0 15.423165,-1.23385 4.729771,-1.23386 11.104681,-2.26207 14.394955,-3.90721 3.290276,-1.64513 6.37491,-3.70156 7.197479,-5.55233 0.822568,-1.85078 1.233852,-3.90721 2.262063,-5.75799 1.028213,-1.85078 2.056423,-2.87899 4.318487,-3.08463 2.262065,-0.20564 3.495918,0.61693 4.112844,3.29028 0.616927,2.67334 1.028211,5.96362 1.439495,7.40311 0.411287,1.4395 1.439497,2.879 4.729771,3.29028 3.290276,0.41128 4.935413,1.4395 11.310323,1.64514 6.374908,0.20564 8.431332,1.85078 11.927248,2.05642"
       style="fill:none;stroke:#ff0000;stroke-width:1.05833333;stroke-linecap:butt;stroke-linejoin:miter;stroke-opacity:1;stroke-miterlimit:4;stroke-dasharray:none" />
  </g>
</svg>
